<svg width="463" height="40" viewBox="0 0 463 40" fill="none" xmlns="http://www.w3.org/2000/svg">
<g filter="url(#filter0_i_1_53)">
<path d="M0 10C0 4.47715 4.47715 0 10 0H453C458.523 0 463 4.47715 463 10V30C463 35.5228 458.523 40 453 40H10C4.47716 40 0 35.5228 0 30V10Z" fill="white"/>
</g>
<path d="M0.5 10C0.5 4.7533 4.75329 0.5 10 0.5H453C458.247 0.5 462.5 4.7533 462.5 10V30C462.5 35.2467 458.247 39.5 453 39.5H10C4.7533 39.5 0.5 35.2467 0.5 30V10Z" stroke="#4F74BB"/>
<defs>
<filter id="filter0_i_1_53" x="0" y="0" width="463" height="44" filterUnits="userSpaceOnUse" color-interpolation-filters="sRGB">
<feFlood flood-opacity="0" result="BackgroundImageFix"/>
<feBlend mode="normal" in="SourceGraphic" in2="BackgroundImageFix" result="shape"/>
<feColorMatrix in="SourceAlpha" type="matrix" values="0 0 0 0 0 0 0 0 0 0 0 0 0 0 0 0 0 0 127 0" result="hardAlpha"/>
<feOffset dy="4"/>
<feGaussianBlur stdDeviation="2"/>
<feComposite in2="hardAlpha" operator="arithmetic" k2="-1" k3="1"/>
<feColorMatrix type="matrix" values="0 0 0 0 0.627451 0 0 0 0 0.682353 0 0 0 0 0.752941 0 0 0 0.25 0"/>
<feBlend mode="normal" in2="shape" result="effect1_innerShadow_1_53"/>
</filter>
</defs>
</svg>
